<svg width="313" height="45" viewBox="0 0 313 45" fill="none" xmlns="http://www.w3.org/2000/svg">
<path d="M16.2145 14.3977C16.2145 16.0972 15.687 17.455 14.6418 18.461C13.5967 19.4769 12.1315 19.9848 10.2561 19.9848H0V0.273499H8.57608C9.6896 0.273499 10.6566 0.390711 11.4771 0.634905C12.2976 0.869331 12.9618 1.19167 13.4697 1.61168C13.9776 2.02192 14.3488 2.51031 14.593 3.06707C14.8372 3.62383 14.9642 4.2392 14.9642 4.90341C14.9642 5.62622 14.8372 6.29043 14.5832 6.9058C14.3293 7.52116 14.0069 8.01932 13.626 8.4198C13.2451 8.81051 12.8641 9.09377 12.4832 9.25005C13.6944 9.77751 14.6223 10.4515 15.2572 11.2622C15.8921 12.0632 16.2145 13.1083 16.2145 14.3977ZM9.9631 5.94856C9.9631 5.00109 9.67984 4.36618 9.11331 4.05362C8.54678 3.74105 7.66768 3.58476 6.47602 3.58476H5.35272V8.31235H6.50532C7.72629 8.31235 8.60538 8.15607 9.15238 7.8435C9.6896 7.53093 9.9631 6.89603 9.9631 5.94856ZM10.8324 14.1632C10.8324 12.4734 9.72867 11.6334 7.53093 11.6334H5.35272V16.6833H7.53093C9.72867 16.6833 10.8324 15.8335 10.8324 14.1632Z" fill="#757373"/>
<path d="M39.8133 10.1194C39.8133 11.9655 39.4324 13.6553 38.6705 15.1986C37.9086 16.7419 36.7658 17.9727 35.2616 18.8811C33.7573 19.7895 31.9112 20.2485 29.7428 20.2485C27.5548 20.2485 25.6892 19.7699 24.1752 18.8224C22.6514 17.875 21.5281 16.6247 20.7858 15.0814C20.0434 13.5381 19.682 11.8776 19.682 10.1096C19.682 8.33189 20.0532 6.68114 20.7858 5.13783C21.5183 3.59453 22.6514 2.35403 24.1752 1.40656C25.6892 0.478619 27.545 0 29.733 0C31.374 0 32.8392 0.273497 34.1187 0.810723C35.4081 1.34795 36.463 2.08053 37.2835 3.00847C38.1137 3.9364 38.7389 5.01085 39.1687 6.24159C39.5984 7.47232 39.8133 8.76167 39.8133 10.1194ZM34.3629 10.1194C34.3629 9.37703 34.2652 8.70306 34.0699 8.08769C33.8745 7.48209 33.5815 6.94487 33.181 6.49555C32.7806 6.04623 32.3019 5.6946 31.7256 5.44063C31.1493 5.18667 30.4949 5.05969 29.7428 5.05969C28.3069 5.05969 27.1836 5.51878 26.3631 6.45648C25.5427 7.38441 25.1324 8.60538 25.1324 10.1096C25.1324 11.6236 25.5427 12.8348 26.3631 13.7725C27.1836 14.7102 28.3069 15.1791 29.733 15.1791C30.7196 15.1791 31.5498 14.9642 32.2433 14.5344C32.9368 14.1046 33.4643 13.499 33.8159 12.7371C34.1871 11.9753 34.3629 11.1059 34.3629 10.1194Z" fill="#D61726"/>
<path d="M56.7603 14.2609C56.7603 15.4916 56.477 16.5563 55.9105 17.4647C55.344 18.3634 54.5528 19.0569 53.537 19.5355C52.5211 20.0141 51.3588 20.2583 50.0401 20.2583C49.6689 20.2583 49.2196 20.229 48.6922 20.1802C48.155 20.1313 47.4517 19.9848 46.5628 19.7406C45.6837 19.5062 44.7558 19.1545 43.7986 18.6857V13.8507C44.6972 14.466 45.5763 14.9837 46.4456 15.3842C47.3149 15.7944 48.2429 15.9898 49.2294 15.9898C50.1378 15.9898 50.7336 15.8237 51.0071 15.4819C51.2709 15.14 51.4076 14.8274 51.4076 14.5344C51.4076 14.0069 51.1732 13.5576 50.7141 13.1865C50.255 12.8153 49.581 12.4441 48.7019 12.0534C47.7252 11.5943 46.8754 11.0962 46.1428 10.5687C45.4102 10.0315 44.8046 9.36727 44.3455 8.55654C43.8865 7.74582 43.652 6.79835 43.652 5.69459C43.652 4.62991 43.8865 3.67267 44.3553 2.81311C44.8242 1.95355 45.5372 1.26981 46.5042 0.761884C47.4712 0.253961 48.6433 0 50.0401 0C51.0267 0 51.9448 0.107445 52.7849 0.322336C53.6249 0.537226 54.3184 0.771652 54.8654 1.03538C55.4124 1.29911 55.7835 1.514 55.9887 1.66052V6.28066C55.2659 5.70436 54.4551 5.18667 53.5663 4.72759C52.6774 4.27827 51.7202 4.04385 50.7043 4.04385C50.0401 4.04385 49.5517 4.19036 49.2587 4.46386C48.9559 4.74712 48.8094 5.09876 48.8094 5.51877C48.8094 5.90948 48.9559 6.25136 49.2587 6.53462C49.5615 6.81788 50.089 7.15976 50.8606 7.57C52.2281 8.28305 53.3221 8.91795 54.1426 9.49425C54.963 10.0608 55.6077 10.725 56.0668 11.4673C56.5259 12.2194 56.7603 13.1474 56.7603 14.2609Z" fill="#757373"/>
<path d="M87.939 0.273499L79.9392 20.2485H76.4033L68.55 0.273499H74.1176L78.181 11.6529L82.3518 0.273499H87.939Z" fill="#757373"/>
<path d="M108.998 19.9946H103.519L102.073 15.9898H94.3564L92.8815 19.9946H87.4018L95.255 0.273499H101.174L108.998 19.9946ZM100.842 12.5613L98.244 5.36249L95.6164 12.5613H100.842Z" fill="#757373"/>
<path d="M131.835 19.9946H127.069L117.858 9.00586V19.9946H112.554V0.273499H117.301L126.483 11.2036V0.273499H131.825V19.9946H131.835Z" fill="#757373"/>
<path d="M164.684 10.4906C164.684 12.5125 164.352 14.1339 163.688 15.3549C163.024 16.5759 162.242 17.5722 161.353 18.3243C160.084 19.4378 158.296 19.9946 156.01 19.9946H146.428V0.273499H153.803C154.916 0.273499 155.864 0.341873 156.655 0.468853C157.446 0.595834 158.159 0.771653 158.784 1.00608C159.419 1.24051 159.957 1.50423 160.396 1.7875C160.836 2.08053 161.236 2.38333 161.588 2.71543C162.193 3.26243 162.731 3.91687 163.18 4.65922C163.639 5.41133 164 6.27089 164.264 7.2672C164.547 8.25375 164.684 9.3282 164.684 10.4906ZM159.244 10.2268C159.244 8.62492 158.97 7.37465 158.413 6.47602C157.866 5.57738 157.202 4.98155 156.43 4.67875C155.659 4.37595 154.868 4.22943 154.067 4.22943H151.791V15.9117H154.067C155.463 15.9117 156.675 15.5405 157.7 14.7981C158.726 14.0558 159.244 12.532 159.244 10.2268Z" fill="#757373"/>
<path d="M182.579 19.9946H169.197V0.273499H182.364V4.22943H174.55V7.8435H182.002V11.819H174.55V16.0191H182.579V19.9946Z" fill="#757373"/>
<path d="M204.527 19.9946H198.774L197.377 16.4977C196.859 15.2181 196.4 14.2804 195.99 13.6846C195.58 13.0888 195.179 12.7176 194.798 12.5418C194.407 12.3757 193.909 12.2976 193.294 12.2976H192.698V19.9946H187.345V0.273499H196.449C197.924 0.273499 199.125 0.605602 200.063 1.26981C201.001 1.93402 201.675 2.74474 202.095 3.69221C202.505 4.63968 202.72 5.53831 202.72 6.39787C202.72 7.39418 202.544 8.23421 202.202 8.91795C201.86 9.61146 201.489 10.1096 201.108 10.4222C200.727 10.7348 200.288 11.0376 199.809 11.3208C200.385 11.692 200.854 12.1315 201.225 12.6395C201.596 13.1474 202.104 14.173 202.739 15.7261L204.527 19.9946ZM197.25 6.50532C197.25 5.58715 196.986 4.95225 196.439 4.60061C195.902 4.2392 195.023 4.06338 193.812 4.06338H192.688V8.82027H193.841C195.15 8.82027 196.039 8.66399 196.517 8.34165C197.015 8.01932 197.25 7.40395 197.25 6.50532Z" fill="#757373"/>
<path d="M233.351 14.3977C233.351 16.0972 232.824 17.455 231.779 18.461C230.734 19.4769 229.269 19.9848 227.393 19.9848H217.137V0.273499H225.723C226.836 0.273499 227.803 0.390711 228.624 0.634905C229.444 0.869331 230.109 1.19167 230.616 1.61168C231.124 2.03169 231.496 2.51031 231.74 3.06707C231.984 3.62383 232.111 4.2392 232.111 4.90341C232.111 5.62622 231.984 6.29043 231.73 6.9058C231.476 7.52116 231.154 8.01932 230.773 8.4198C230.392 8.81051 230.011 9.09377 229.62 9.25005C230.831 9.77751 231.759 10.4515 232.394 11.2622C233.029 12.0632 233.351 13.1083 233.351 14.3977ZM227.1 5.94856C227.1 5.00109 226.827 4.36618 226.26 4.05362C225.694 3.74105 224.814 3.58476 223.623 3.58476H222.499V8.31235H223.652C224.873 8.31235 225.752 8.15607 226.299 7.8435C226.827 7.53093 227.1 6.89603 227.1 5.94856ZM227.969 14.1632C227.969 12.4734 226.866 11.6334 224.668 11.6334H222.49V16.6833H224.668C226.866 16.6833 227.969 15.8335 227.969 14.1632Z" fill="#757373"/>
<path d="M255.954 11.1548C255.954 12.8446 255.671 14.2804 255.104 15.4721C254.538 16.6638 253.786 17.6015 252.848 18.295C251.91 18.9885 250.904 19.4867 249.83 19.7895C248.755 20.0923 247.671 20.2485 246.596 20.2485C245.092 20.2485 243.627 19.9653 242.211 19.389C240.794 18.8224 239.603 17.8554 238.646 16.488C237.688 15.1205 237.21 13.3427 237.21 11.1548V0.273499H242.553V9.62123C242.553 10.9203 242.719 11.9948 243.061 12.8446C243.393 13.6944 243.871 14.3195 244.467 14.7102C245.063 15.1107 245.776 15.3061 246.596 15.3061C247.378 15.3061 248.081 15.1107 248.687 14.72C249.292 14.3293 249.761 13.7139 250.103 12.8739C250.435 12.0241 250.611 10.9594 250.611 9.6603V0.283266H255.964V11.1548H255.954Z" fill="#757373"/>
<path d="M278.547 19.9946H272.794L271.397 16.4977C270.879 15.2181 270.42 14.2804 270.01 13.6846C269.599 13.0888 269.199 12.7176 268.818 12.5418C268.427 12.3757 267.929 12.2976 267.314 12.2976H266.718V19.9946H261.365V0.273499H270.469C271.944 0.273499 273.145 0.605602 274.083 1.26981C275.021 1.93402 275.695 2.74474 276.115 3.69221C276.535 4.63968 276.74 5.53831 276.74 6.39787C276.74 7.39418 276.564 8.23421 276.222 8.91795C275.88 9.61146 275.509 10.1096 275.128 10.4222C274.747 10.7348 274.308 11.0376 273.829 11.3208C274.405 11.692 274.874 12.1315 275.245 12.6395C275.616 13.1474 276.124 14.173 276.759 15.7261L278.547 19.9946ZM271.27 6.50532C271.27 5.58715 271.006 4.95225 270.459 4.60061C269.922 4.2392 269.043 4.06338 267.832 4.06338H266.708V8.82027H267.861C269.17 8.82027 270.059 8.66399 270.537 8.34165C271.035 8.01932 271.27 7.40395 271.27 6.50532Z" fill="#757373"/>
<path d="M298.922 18.5978C298.541 18.7541 298.209 18.8908 297.936 18.9983C297.662 19.1057 297.399 19.1936 297.145 19.2815C296.891 19.3694 296.529 19.4769 296.051 19.6136C295.24 19.8285 294.429 19.9848 293.628 20.0922C292.817 20.1997 291.968 20.2583 291.069 20.2583C289.272 20.2583 287.601 19.8871 286.078 19.1545C284.554 18.422 283.323 17.2889 282.405 15.7554C281.487 14.2218 281.028 12.3367 281.028 10.0901C281.028 8.64445 281.262 7.2379 281.741 5.84111C282.21 4.45409 282.932 3.34057 283.909 2.50054C284.71 1.80703 285.521 1.27957 286.351 0.918168C287.172 0.546994 287.982 0.312568 288.764 0.185587C289.545 0.0683742 290.415 0 291.362 0C292.925 0 294.214 0.136748 295.23 0.39071C296.246 0.654439 297.359 0.99631 298.571 1.42609V6.09507C297.77 5.57738 296.92 5.13783 296.021 4.78619C295.123 4.43456 294.009 4.25874 292.671 4.25874C291.128 4.25874 289.887 4.58107 288.959 5.23551C288.031 5.88018 287.387 6.6616 287.025 7.56023C286.664 8.45887 286.478 9.33796 286.478 10.178C286.478 11.1743 286.693 12.0925 287.103 12.9325C287.523 13.7725 288.148 14.4465 288.998 14.9544C289.848 15.4623 290.864 15.7163 292.056 15.7163C292.739 15.7163 293.462 15.6186 294.234 15.4135V13.0888H291.821V9.12307H298.903V18.5978H298.922Z" fill="#757373"/>
<path d="M312.099 0.195343H310.36V44.9902H312.099V0.195343Z" fill="#D61726"/>
<path d="M164.967 32.3215H166.091L171.121 44.8535H169.48L167.986 41.1613H163.199L161.793 44.8535H160.142L164.967 32.3215ZM167.331 39.5789L165.524 35.0662L163.844 39.5789H167.331Z" fill="#757373"/>
<path d="M177.304 44.8437V32.3898H181.084C182.608 32.3898 183.809 32.6438 184.708 33.1517C185.597 33.6596 186.3 34.4118 186.828 35.3983C187.345 36.3848 187.609 37.4593 187.609 38.6314C187.609 39.4617 187.463 40.2626 187.169 41.0245C186.886 41.7864 186.466 42.4506 185.939 43.0269C185.392 43.6227 184.757 44.0721 184.034 44.3749C183.614 44.5604 183.223 44.6777 182.872 44.746C182.52 44.8046 181.846 44.8339 180.85 44.8339H177.304V44.8437ZM180.918 33.982H178.906V43.2516H180.957C181.758 43.2516 182.383 43.193 182.823 43.066C183.272 42.939 183.643 42.7925 183.936 42.6069C184.229 42.4213 184.503 42.1869 184.747 41.9134C185.538 41.0245 185.939 39.8915 185.939 38.5337C185.939 37.1956 185.529 36.1016 184.718 35.2615C184.415 34.9392 184.073 34.6853 183.682 34.4801C183.292 34.2848 182.93 34.148 182.579 34.0796C182.247 34.0113 181.69 33.982 180.918 33.982Z" fill="#757373"/>
<path d="M201.655 32.3898H203.257L198.51 44.9121H198.148L193.313 32.3898H194.925L198.295 41.1417L201.655 32.3898Z" fill="#757373"/>
<path d="M214.92 32.214C216.658 32.214 218.094 32.8196 219.247 34.0406C220.399 35.2616 220.976 36.7853 220.976 38.6217C220.976 40.458 220.39 41.9818 219.227 43.1832C218.065 44.3846 216.6 44.9902 214.832 44.9902C213.142 44.9902 211.735 44.3846 210.602 43.1832C209.479 41.9818 208.913 40.4678 208.913 38.651C208.913 36.7853 209.479 35.242 210.612 34.0308C211.755 32.8196 213.191 32.214 214.92 32.214ZM214.988 33.9136C213.699 33.9136 212.654 34.3629 211.823 35.2518C211.003 36.1407 210.583 37.2835 210.583 38.6705C210.583 40.0087 210.993 41.132 211.823 42.0208C212.654 42.9097 213.689 43.359 214.939 43.359C216.189 43.359 217.235 42.8999 218.075 41.9915C218.915 41.0831 219.335 39.9501 219.335 38.5924C219.335 37.2737 218.915 36.1602 218.075 35.2616C217.235 34.3629 216.209 33.9136 214.988 33.9136Z" fill="#757373"/>
<path d="M237.561 41.9622V43.9255C236.379 44.6386 235.022 45 233.478 45C232.228 45 231.163 44.7167 230.294 44.16C229.425 43.6032 228.731 42.8316 228.223 41.845C227.715 40.8682 227.461 39.8036 227.461 38.6607C227.461 36.8439 228.048 35.3202 229.21 34.0797C230.372 32.8489 231.808 32.2238 233.517 32.2238C234.69 32.2238 235.998 32.5657 237.444 33.2494V35.1639C236.135 34.3336 234.846 33.9136 233.596 33.9136C232.306 33.9136 231.242 34.3629 230.392 35.2616C229.542 36.1602 229.122 37.2932 229.122 38.651C229.122 40.0184 229.542 41.1417 230.372 42.0208C231.203 42.8999 232.277 43.3395 233.576 43.3395C234.934 43.359 236.262 42.8902 237.561 41.9622Z" fill="#757373"/>
<path d="M248.042 32.3215H249.165L254.196 44.8535H252.555L251.06 41.1613H246.274L244.868 44.8535H243.217L248.042 32.3215ZM250.396 39.5789L248.589 35.0662L246.909 39.5789H250.396Z" fill="#757373"/>
<path d="M259.412 32.3703H268.779V33.9624H264.872V44.8535H263.26V33.9624H259.422V32.3703H259.412Z" fill="#757373"/>
<path d="M275.226 32.3898H281.585V33.982H276.828V37.7816H281.428V39.3835H276.828V43.2516H281.731V44.8437H275.216V32.3898H275.226Z" fill="#757373"/>
<path d="M297.291 32.3898H298.815V44.8535H297.428L289.926 35.2518V44.8535H288.412V32.3898H289.711L297.281 42.0697V32.3898H297.291Z" fill="#757373"/>
</svg>
